<?xml version="1.0" encoding="UTF-8"?>
<svg id="Layer_1" data-name="Layer 1" xmlns="http://www.w3.org/2000/svg" viewBox="0 0 89.45 15.36">
  <defs>
    <style>
      .cls-1 {
        fill: #8dffe1;
        stroke: #8dffe1;
        stroke-miterlimit: 10;
        stroke-width: .75px;
      }
    </style>
  </defs>
  <path class="cls-1" d="m.9,12.53c.82.5,2.02.92,3.28.92,1.87,0,2.96-.99,2.96-2.41,0-1.32-.76-2.08-2.67-2.81-2.31-.82-3.74-2.02-3.74-4.01C.73,2.01,2.56.38,5.31.38c1.45,0,2.5.34,3.13.69l-.5,1.49c-.46-.25-1.41-.67-2.69-.67-1.93,0-2.67,1.15-2.67,2.12,0,1.32.86,1.97,2.81,2.73,2.39.92,3.61,2.08,3.61,4.16,0,2.18-1.62,4.07-4.96,4.07-1.36,0-2.86-.4-3.61-.9l.46-1.53Z"/>
  <path class="cls-1" d="m13.61,1.68v2.92h2.65v1.41h-2.65v5.48c0,1.26.36,1.97,1.39,1.97.48,0,.84-.06,1.07-.13l.08,1.39c-.36.15-.92.25-1.64.25-.86,0-1.55-.27-1.99-.78-.52-.55-.71-1.45-.71-2.65v-5.54h-1.57v-1.41h1.57v-2.44l1.81-.48Z"/>
  <path class="cls-1" d="m18.33,7.77c0-1.2-.02-2.23-.08-3.17h1.62l.06,1.99h.08c.46-1.36,1.57-2.23,2.81-2.23.21,0,.36.02.52.06v1.74c-.19-.04-.38-.06-.63-.06-1.3,0-2.23.99-2.48,2.37-.04.25-.08.55-.08.86v5.42h-1.83v-6.99Z"/>
  <path class="cls-1" d="m30.72,14.76l-.15-1.28h-.06c-.57.8-1.66,1.51-3.11,1.51-2.06,0-3.11-1.45-3.11-2.92,0-2.46,2.18-3.8,6.11-3.78v-.21c0-.84-.23-2.35-2.31-2.35-.94,0-1.93.29-2.65.76l-.42-1.22c.84-.55,2.06-.9,3.34-.9,3.11,0,3.86,2.12,3.86,4.16v3.8c0,.88.04,1.74.17,2.44h-1.68Zm-.27-5.19c-2.02-.04-4.3.31-4.3,2.29,0,1.2.8,1.76,1.74,1.76,1.32,0,2.16-.84,2.46-1.7.06-.19.1-.4.1-.59v-1.76Z"/>
  <path class="cls-1" d="m37.36,1.68v2.92h2.65v1.41h-2.65v5.48c0,1.26.36,1.97,1.39,1.97.48,0,.84-.06,1.07-.13l.08,1.39c-.36.15-.92.25-1.64.25-.86,0-1.55-.27-1.99-.78-.52-.55-.71-1.45-.71-2.65v-5.54h-1.57v-1.41h1.57v-2.44l1.81-.48Z"/>
  <path class="cls-1" d="m50.59,11.99c0,1.05.02,1.97.08,2.77h-1.64l-.1-1.66h-.04c-.48.82-1.55,1.89-3.36,1.89-1.6,0-3.51-.88-3.51-4.45v-5.94h1.85v5.63c0,1.93.59,3.23,2.27,3.23,1.24,0,2.1-.86,2.44-1.68.1-.27.17-.61.17-.94v-6.24h1.85v7.39Z"/>
  <path class="cls-1" d="m53.4,12.87c.55.36,1.51.73,2.44.73,1.34,0,1.97-.67,1.97-1.51,0-.88-.52-1.36-1.89-1.87-1.83-.65-2.69-1.66-2.69-2.88,0-1.64,1.32-2.98,3.51-2.98,1.03,0,1.93.29,2.5.63l-.46,1.34c-.4-.25-1.13-.59-2.08-.59-1.09,0-1.7.63-1.7,1.39,0,.84.61,1.22,1.93,1.72,1.76.67,2.67,1.55,2.67,3.07,0,1.78-1.39,3.04-3.8,3.04-1.11,0-2.14-.27-2.86-.69l.46-1.41Z"/>
  <path class="cls-1" d="m73.96,8.54c-.1-1.97-.23-4.35-.21-6.11h-.06c-.48,1.66-1.07,3.42-1.78,5.38l-2.5,6.87h-1.39l-2.29-6.74c-.67-1.99-1.24-3.82-1.64-5.5h-.04c-.04,1.76-.15,4.14-.27,6.26l-.38,6.07h-1.74l.99-14.15h2.33l2.41,6.84c.59,1.74,1.07,3.3,1.43,4.77h.06c.36-1.43.86-2.98,1.49-4.77l2.52-6.84h2.33l.88,14.15h-1.78l-.36-6.21Z"/>
  <path class="cls-1" d="m86.66,14.76l-1.81-3.13c-.73-1.2-1.2-1.97-1.64-2.79h-.04c-.4.82-.8,1.57-1.53,2.81l-1.7,3.11h-2.1l4.33-7.16-4.16-6.99h2.12l1.87,3.32c.52.92.92,1.64,1.3,2.39h.06c.4-.84.76-1.49,1.28-2.39l1.93-3.32h2.1l-4.3,6.89,4.41,7.26h-2.12Z"/>
</svg>
