<?xml version="1.0" encoding="UTF-8"?>
<svg id="Layer_1" data-name="Layer 1" xmlns="http://www.w3.org/2000/svg" viewBox="0 0 39.98 16.8">
  <defs>
    <style>
      .cls-1 {
        fill: #8dffe1;
      }
    </style>
  </defs>
  <path class="cls-1" d="m2.79,10.93v5.87H0V0h5.21c1.94,0,3.42.45,4.44,1.35s1.53,2.21,1.53,3.93-.57,3.03-1.72,4.08-2.7,1.57-4.64,1.57h-2.03Zm0-8.65v6.38h1.8c1.2,0,2.11-.28,2.73-.84s.93-1.37.93-2.42-.29-1.82-.88-2.34-1.46-.78-2.64-.78h-1.95Z"/>
  <path class="cls-1" d="m24.79,2.37h-4.82v14.44h-2.8V2.37h-4.8V0h12.42v2.37Z"/>
  <path class="cls-1" d="m39.98,16.8h-3.64l-5.77-7.45c-.09-.11-.18-.23-.25-.35s-.14-.25-.19-.39h-.06v8.19h-2.79V0h2.79v7.85h.06c.05-.09.11-.2.19-.33s.17-.26.27-.41l5.53-7.11h3.33l-6.56,8,7.1,8.8Z"/>
</svg>